<svg xmlns="http://www.w3.org/2000/svg" xmlns:xlink="http://www.w3.org/1999/xlink" width="250" zoomAndPan="magnify" viewBox="0 0 187.5 44.999999" height="60" preserveAspectRatio="xMidYMid meet" version="1.0"><defs><g/><clipPath id="4487263852"><path d="M 0 0.0585938 L 187 0.0585938 L 187 44.9375 L 0 44.9375 Z M 0 0.0585938 " clip-rule="nonzero"/></clipPath></defs><g clip-path="url(#4487263852)"><path fill="#ffffff" d="M 0 0.0585938 L 187 0.0585938 L 187 44.941406 L 0 44.941406 Z M 0 0.0585938 " fill-opacity="1" fill-rule="nonzero"/><path fill="#51164d" d="M 0 0.0585938 L 187 0.0585938 L 187 44.941406 L 0 44.941406 Z M 0 0.0585938 " fill-opacity="1" fill-rule="nonzero"/></g><g fill="#ffffff" fill-opacity="1"><g transform="translate(20.812853, 27.362033)"><g><path d="M 0.5625 -13.09375 C 0.625 -13.125 2.222656 -13.140625 5.359375 -13.140625 L 10.046875 -13.125 L 10.046875 -10.984375 L 6.359375 -10.953125 L 6.359375 -0.703125 L 4.234375 -0.703125 L 4.234375 -10.953125 L 0.453125 -10.953125 L 0.453125 -12.015625 C 0.453125 -12.710938 0.488281 -13.070312 0.5625 -13.09375 Z M 0.5625 -13.09375 "/></g></g></g><g fill="#ffffff" fill-opacity="1"><g transform="translate(32.83665, 27.362033)"><g><path d="M 1.515625 -13.3125 C 1.671875 -13.332031 2.007812 -13.34375 2.53125 -13.34375 C 2.875 -13.34375 3.078125 -13.332031 3.140625 -13.3125 C 3.210938 -13.289062 3.253906 -13.234375 3.265625 -13.140625 C 3.285156 -13.046875 3.304688 -12.992188 3.328125 -12.984375 C 3.359375 -12.984375 3.382812 -12.984375 3.40625 -12.984375 C 3.476562 -12.984375 3.570312 -12.988281 3.6875 -13 C 4.445312 -13.101562 5.140625 -13.15625 5.765625 -13.15625 C 7.128906 -13.15625 8.164062 -12.894531 8.875 -12.375 C 9.101562 -12.207031 9.289062 -12.023438 9.4375 -11.828125 C 9.582031 -11.628906 9.734375 -11.347656 9.890625 -10.984375 C 9.984375 -10.753906 10.039062 -10.5625 10.0625 -10.40625 C 10.082031 -10.257812 10.09375 -9.953125 10.09375 -9.484375 C 10.09375 -9.078125 10.082031 -8.78125 10.0625 -8.59375 C 10.039062 -8.40625 9.988281 -8.207031 9.90625 -8 C 9.789062 -7.675781 9.578125 -7.328125 9.265625 -6.953125 C 8.953125 -6.585938 8.648438 -6.316406 8.359375 -6.140625 C 8.234375 -6.078125 8.132812 -6.015625 8.0625 -5.953125 C 8 -5.890625 7.96875 -5.835938 7.96875 -5.796875 C 7.96875 -5.785156 7.96875 -5.78125 7.96875 -5.78125 C 7.988281 -5.71875 8.191406 -5.375 8.578125 -4.75 C 8.972656 -4.132812 9.367188 -3.492188 9.765625 -2.828125 C 10.191406 -2.128906 10.40625 -1.757812 10.40625 -1.71875 C 10.40625 -1.664062 10.175781 -1.445312 9.71875 -1.0625 C 9.257812 -0.675781 8.984375 -0.46875 8.890625 -0.4375 C 8.835938 -0.4375 8.726562 -0.554688 8.5625 -0.796875 C 8.40625 -1.046875 8.238281 -1.328125 8.0625 -1.640625 C 7.632812 -2.328125 7.09375 -3.160156 6.4375 -4.140625 L 5.5625 -5.484375 L 3.265625 -5.484375 L 3.375 -0.671875 L 1.234375 -0.671875 L 1.21875 -3.921875 C 1.21875 -5.878906 1.210938 -7.988281 1.203125 -10.25 L 1.203125 -13.28125 Z M 6.9375 -10.828125 C 6.6875 -10.910156 6.210938 -10.953125 5.515625 -10.953125 C 5.128906 -10.953125 4.671875 -10.9375 4.140625 -10.90625 C 4.140625 -10.90625 4.132812 -10.90625 4.125 -10.90625 C 4.113281 -10.90625 4.109375 -10.90625 4.109375 -10.90625 L 4.09375 -10.90625 C 4.09375 -10.90625 4.082031 -10.90625 4.0625 -10.90625 L 3.96875 -10.90625 C 3.957031 -10.90625 3.953125 -10.90625 3.953125 -10.90625 C 3.597656 -10.894531 3.398438 -10.835938 3.359375 -10.734375 C 3.316406 -10.640625 3.296875 -10.378906 3.296875 -9.953125 C 3.296875 -9.847656 3.296875 -9.734375 3.296875 -9.609375 C 3.296875 -9.597656 3.296875 -9.59375 3.296875 -9.59375 L 3.296875 -9.5625 C 3.296875 -9.550781 3.296875 -9.546875 3.296875 -9.546875 L 3.296875 -9.515625 C 3.296875 -9.515625 3.296875 -9.503906 3.296875 -9.484375 C 3.296875 -9.472656 3.296875 -9.460938 3.296875 -9.453125 L 3.296875 -9.40625 C 3.296875 -9.394531 3.296875 -9.390625 3.296875 -9.390625 L 3.296875 -7.65625 L 4.921875 -7.703125 C 5.585938 -7.710938 6.050781 -7.726562 6.3125 -7.75 C 6.570312 -7.769531 6.773438 -7.816406 6.921875 -7.890625 C 7.265625 -8.023438 7.523438 -8.234375 7.703125 -8.515625 C 7.878906 -8.804688 7.96875 -9.097656 7.96875 -9.390625 C 7.96875 -9.679688 7.878906 -9.96875 7.703125 -10.25 C 7.535156 -10.53125 7.28125 -10.722656 6.9375 -10.828125 Z M 6.9375 -10.828125 "/></g></g></g><g fill="#ffffff" fill-opacity="1"><g transform="translate(45.23929, 27.362033)"><g><path d="M 6.34375 -8.09375 C 5.882812 -9.5 5.644531 -10.203125 5.625 -10.203125 C 5.613281 -10.203125 5.421875 -9.675781 5.046875 -8.625 C 4.679688 -7.582031 4.390625 -6.726562 4.171875 -6.0625 C 4.148438 -6 4.179688 -5.957031 4.265625 -5.9375 C 4.398438 -5.894531 4.832031 -5.875 5.5625 -5.875 C 6.539062 -5.875 7.023438 -5.90625 7.015625 -5.96875 C 7.015625 -6 6.789062 -6.707031 6.34375 -8.09375 Z M 5.40625 -13.203125 C 5.78125 -13.242188 6.035156 -13.269531 6.171875 -13.28125 C 6.304688 -13.300781 6.429688 -13.296875 6.546875 -13.265625 C 6.660156 -13.242188 6.726562 -13.207031 6.75 -13.15625 C 6.78125 -13.113281 6.820312 -13.03125 6.875 -12.90625 C 7.570312 -10.894531 8.660156 -7.625 10.140625 -3.09375 C 10.554688 -1.851562 10.757812 -1.207031 10.75 -1.15625 C 10.71875 -1.1875 10.398438 -1.070312 9.796875 -0.8125 L 8.875 -0.4375 L 8.765625 -0.703125 C 8.617188 -1.066406 8.429688 -1.617188 8.203125 -2.359375 C 7.984375 -3.109375 7.875 -3.507812 7.875 -3.5625 C 7.875 -3.644531 7.117188 -3.675781 5.609375 -3.65625 L 3.34375 -3.609375 L 2.828125 -2.1875 C 2.515625 -1.21875 2.328125 -0.707031 2.265625 -0.65625 C 2.234375 -0.613281 1.921875 -0.707031 1.328125 -0.9375 C 0.742188 -1.164062 0.441406 -1.316406 0.421875 -1.390625 C 0.410156 -1.484375 0.640625 -2.21875 1.109375 -3.59375 C 1.484375 -4.582031 2.15625 -6.472656 3.125 -9.265625 C 3.976562 -11.722656 4.425781 -12.972656 4.46875 -13.015625 C 4.488281 -13.054688 4.800781 -13.117188 5.40625 -13.203125 Z M 5.40625 -13.203125 "/></g></g></g><g fill="#ffffff" fill-opacity="1"><g transform="translate(58.000832, 27.362033)"><g><path d="M 1.203125 -10.171875 L 1.203125 -13.234375 L 3.296875 -13.234375 L 3.296875 -10.5 C 3.296875 -8.59375 3.3125 -6.507812 3.34375 -4.25 L 3.390625 -0.703125 L 1.296875 -0.703125 L 1.25 -3.890625 C 1.21875 -5.960938 1.203125 -8.054688 1.203125 -10.171875 Z M 1.203125 -10.171875 "/></g></g></g><g fill="#ffffff" fill-opacity="1"><g transform="translate(64.182527, 27.362033)"><g><path d="M 0.5625 -13.09375 C 0.625 -13.125 2.222656 -13.140625 5.359375 -13.140625 L 10.046875 -13.125 L 10.046875 -10.984375 L 6.359375 -10.953125 L 6.359375 -0.703125 L 4.234375 -0.703125 L 4.234375 -10.953125 L 0.453125 -10.953125 L 0.453125 -12.015625 C 0.453125 -12.710938 0.488281 -13.070312 0.5625 -13.09375 Z M 0.5625 -13.09375 "/></g></g></g><g fill="#ffffff" fill-opacity="1"><g transform="translate(76.206322, 27.362033)"><g><path d="M 3.984375 -13.15625 C 4.253906 -13.195312 4.546875 -13.21875 4.859375 -13.21875 C 5.242188 -13.21875 5.769531 -13.179688 6.4375 -13.109375 C 7.101562 -13.035156 7.675781 -12.882812 8.15625 -12.65625 L 8.40625 -12.546875 L 8.15625 -11.625 C 8.03125 -11.09375 7.953125 -10.769531 7.921875 -10.65625 C 7.890625 -10.539062 7.847656 -10.484375 7.796875 -10.484375 C 7.785156 -10.484375 7.769531 -10.484375 7.75 -10.484375 C 7.050781 -10.722656 6.59375 -10.863281 6.375 -10.90625 C 6.15625 -10.945312 5.765625 -10.96875 5.203125 -10.96875 C 4.710938 -10.96875 4.382812 -10.953125 4.21875 -10.921875 C 4.050781 -10.898438 3.894531 -10.847656 3.75 -10.765625 C 3.425781 -10.566406 3.234375 -10.335938 3.171875 -10.078125 C 3.109375 -9.828125 3.078125 -9.648438 3.078125 -9.546875 C 3.078125 -9.335938 3.128906 -9.148438 3.234375 -8.984375 C 3.378906 -8.773438 3.585938 -8.601562 3.859375 -8.46875 C 4.128906 -8.34375 4.597656 -8.175781 5.265625 -7.96875 C 6.578125 -7.5625 7.507812 -7.101562 8.0625 -6.59375 C 8.625 -6.082031 8.90625 -5.332031 8.90625 -4.34375 C 8.90625 -4.320312 8.90625 -4.296875 8.90625 -4.265625 C 8.90625 -3.398438 8.695312 -2.65625 8.28125 -2.03125 C 7.875 -1.40625 7.28125 -0.972656 6.5 -0.734375 C 6.15625 -0.640625 5.566406 -0.59375 4.734375 -0.59375 C 3.898438 -0.59375 3.234375 -0.644531 2.734375 -0.75 C 2.148438 -0.875 1.644531 -1.007812 1.21875 -1.15625 C 0.800781 -1.300781 0.59375 -1.414062 0.59375 -1.5 C 0.613281 -1.550781 0.703125 -1.882812 0.859375 -2.5 C 0.960938 -2.90625 1.046875 -3.171875 1.109375 -3.296875 C 1.179688 -3.421875 1.25 -3.484375 1.3125 -3.484375 C 1.320312 -3.484375 1.328125 -3.484375 1.328125 -3.484375 C 1.484375 -3.484375 1.835938 -3.398438 2.390625 -3.234375 C 3.378906 -2.941406 4.222656 -2.796875 4.921875 -2.796875 C 4.992188 -2.796875 5.226562 -2.800781 5.625 -2.8125 C 6.03125 -2.832031 6.375 -3.035156 6.65625 -3.421875 C 6.78125 -3.597656 6.847656 -3.753906 6.859375 -3.890625 C 6.867188 -4.023438 6.875 -4.109375 6.875 -4.140625 C 6.875 -4.304688 6.84375 -4.460938 6.78125 -4.609375 C 6.65625 -4.859375 6.429688 -5.070312 6.109375 -5.25 C 5.785156 -5.425781 5.25 -5.628906 4.5 -5.859375 C 3.726562 -6.046875 3.132812 -6.253906 2.71875 -6.484375 C 2.300781 -6.722656 1.953125 -6.945312 1.671875 -7.15625 C 1.140625 -7.550781 0.851562 -7.972656 0.8125 -8.421875 C 0.769531 -8.878906 0.75 -9.179688 0.75 -9.328125 C 0.75 -9.941406 0.878906 -10.539062 1.140625 -11.125 C 1.359375 -11.65625 1.726562 -12.101562 2.25 -12.46875 C 2.769531 -12.832031 3.347656 -13.0625 3.984375 -13.15625 Z M 3.984375 -13.15625 "/></g></g></g><g fill="#ffffff" fill-opacity="1"><g transform="translate(87.292987, 27.362033)"><g><path d="M 1.828125 0.125 C 3.734375 0.09375 5.1875 0.078125 6.1875 0.078125 L 8.734375 0.0625 L 8.734375 2.15625 L 0 2.15625 L 0.046875 0.140625 Z M 1.828125 0.125 "/></g></g></g><g fill="#ffffff" fill-opacity="1"><g transform="translate(97.621979, 27.362033)"><g><path d="M 0.5625 -13.09375 C 0.625 -13.125 2.222656 -13.140625 5.359375 -13.140625 L 10.046875 -13.125 L 10.046875 -10.984375 L 6.359375 -10.953125 L 6.359375 -0.703125 L 4.234375 -0.703125 L 4.234375 -10.953125 L 0.453125 -10.953125 L 0.453125 -12.015625 C 0.453125 -12.710938 0.488281 -13.070312 0.5625 -13.09375 Z M 0.5625 -13.09375 "/></g></g></g><g fill="#ffffff" fill-opacity="1"><g transform="translate(109.645774, 27.362033)"><g><path d="M 6.34375 -8.09375 C 5.882812 -9.5 5.644531 -10.203125 5.625 -10.203125 C 5.613281 -10.203125 5.421875 -9.675781 5.046875 -8.625 C 4.679688 -7.582031 4.390625 -6.726562 4.171875 -6.0625 C 4.148438 -6 4.179688 -5.957031 4.265625 -5.9375 C 4.398438 -5.894531 4.832031 -5.875 5.5625 -5.875 C 6.539062 -5.875 7.023438 -5.90625 7.015625 -5.96875 C 7.015625 -6 6.789062 -6.707031 6.34375 -8.09375 Z M 5.40625 -13.203125 C 5.78125 -13.242188 6.035156 -13.269531 6.171875 -13.28125 C 6.304688 -13.300781 6.429688 -13.296875 6.546875 -13.265625 C 6.660156 -13.242188 6.726562 -13.207031 6.75 -13.15625 C 6.78125 -13.113281 6.820312 -13.03125 6.875 -12.90625 C 7.570312 -10.894531 8.660156 -7.625 10.140625 -3.09375 C 10.554688 -1.851562 10.757812 -1.207031 10.75 -1.15625 C 10.71875 -1.1875 10.398438 -1.070312 9.796875 -0.8125 L 8.875 -0.4375 L 8.765625 -0.703125 C 8.617188 -1.066406 8.429688 -1.617188 8.203125 -2.359375 C 7.984375 -3.109375 7.875 -3.507812 7.875 -3.5625 C 7.875 -3.644531 7.117188 -3.675781 5.609375 -3.65625 L 3.34375 -3.609375 L 2.828125 -2.1875 C 2.515625 -1.21875 2.328125 -0.707031 2.265625 -0.65625 C 2.234375 -0.613281 1.921875 -0.707031 1.328125 -0.9375 C 0.742188 -1.164062 0.441406 -1.316406 0.421875 -1.390625 C 0.410156 -1.484375 0.640625 -2.21875 1.109375 -3.59375 C 1.484375 -4.582031 2.15625 -6.472656 3.125 -9.265625 C 3.976562 -11.722656 4.425781 -12.972656 4.46875 -13.015625 C 4.488281 -13.054688 4.800781 -13.117188 5.40625 -13.203125 Z M 5.40625 -13.203125 "/></g></g></g><g fill="#ffffff" fill-opacity="1"><g transform="translate(122.407312, 27.362033)"><g><path d="M 3.984375 -13.15625 C 4.253906 -13.195312 4.546875 -13.21875 4.859375 -13.21875 C 5.242188 -13.21875 5.769531 -13.179688 6.4375 -13.109375 C 7.101562 -13.035156 7.675781 -12.882812 8.15625 -12.65625 L 8.40625 -12.546875 L 8.15625 -11.625 C 8.03125 -11.09375 7.953125 -10.769531 7.921875 -10.65625 C 7.890625 -10.539062 7.847656 -10.484375 7.796875 -10.484375 C 7.785156 -10.484375 7.769531 -10.484375 7.75 -10.484375 C 7.050781 -10.722656 6.59375 -10.863281 6.375 -10.90625 C 6.15625 -10.945312 5.765625 -10.96875 5.203125 -10.96875 C 4.710938 -10.96875 4.382812 -10.953125 4.21875 -10.921875 C 4.050781 -10.898438 3.894531 -10.847656 3.75 -10.765625 C 3.425781 -10.566406 3.234375 -10.335938 3.171875 -10.078125 C 3.109375 -9.828125 3.078125 -9.648438 3.078125 -9.546875 C 3.078125 -9.335938 3.128906 -9.148438 3.234375 -8.984375 C 3.378906 -8.773438 3.585938 -8.601562 3.859375 -8.46875 C 4.128906 -8.34375 4.597656 -8.175781 5.265625 -7.96875 C 6.578125 -7.5625 7.507812 -7.101562 8.0625 -6.59375 C 8.625 -6.082031 8.90625 -5.332031 8.90625 -4.34375 C 8.90625 -4.320312 8.90625 -4.296875 8.90625 -4.265625 C 8.90625 -3.398438 8.695312 -2.65625 8.28125 -2.03125 C 7.875 -1.40625 7.28125 -0.972656 6.5 -0.734375 C 6.15625 -0.640625 5.566406 -0.59375 4.734375 -0.59375 C 3.898438 -0.59375 3.234375 -0.644531 2.734375 -0.75 C 2.148438 -0.875 1.644531 -1.007812 1.21875 -1.15625 C 0.800781 -1.300781 0.59375 -1.414062 0.59375 -1.5 C 0.613281 -1.550781 0.703125 -1.882812 0.859375 -2.5 C 0.960938 -2.90625 1.046875 -3.171875 1.109375 -3.296875 C 1.179688 -3.421875 1.25 -3.484375 1.3125 -3.484375 C 1.320312 -3.484375 1.328125 -3.484375 1.328125 -3.484375 C 1.484375 -3.484375 1.835938 -3.398438 2.390625 -3.234375 C 3.378906 -2.941406 4.222656 -2.796875 4.921875 -2.796875 C 4.992188 -2.796875 5.226562 -2.800781 5.625 -2.8125 C 6.03125 -2.832031 6.375 -3.035156 6.65625 -3.421875 C 6.78125 -3.597656 6.847656 -3.753906 6.859375 -3.890625 C 6.867188 -4.023438 6.875 -4.109375 6.875 -4.140625 C 6.875 -4.304688 6.84375 -4.460938 6.78125 -4.609375 C 6.65625 -4.859375 6.429688 -5.070312 6.109375 -5.25 C 5.785156 -5.425781 5.25 -5.628906 4.5 -5.859375 C 3.726562 -6.046875 3.132812 -6.253906 2.71875 -6.484375 C 2.300781 -6.722656 1.953125 -6.945312 1.671875 -7.15625 C 1.140625 -7.550781 0.851562 -7.972656 0.8125 -8.421875 C 0.769531 -8.878906 0.75 -9.179688 0.75 -9.328125 C 0.75 -9.941406 0.878906 -10.539062 1.140625 -11.125 C 1.359375 -11.65625 1.726562 -12.101562 2.25 -12.46875 C 2.769531 -12.832031 3.347656 -13.0625 3.984375 -13.15625 Z M 3.984375 -13.15625 "/></g></g></g><g fill="#ffffff" fill-opacity="1"><g transform="translate(133.493978, 27.362033)"><g><path d="M 0.5625 -13.09375 C 0.625 -13.125 2.222656 -13.140625 5.359375 -13.140625 L 10.046875 -13.125 L 10.046875 -10.984375 L 6.359375 -10.953125 L 6.359375 -0.703125 L 4.234375 -0.703125 L 4.234375 -10.953125 L 0.453125 -10.953125 L 0.453125 -12.015625 C 0.453125 -12.710938 0.488281 -13.070312 0.5625 -13.09375 Z M 0.5625 -13.09375 "/></g></g></g><g fill="#ffffff" fill-opacity="1"><g transform="translate(145.517772, 27.362033)"><g><path d="M 1.234375 -7.4375 L 1.203125 -13.09375 L 8.671875 -13.09375 L 8.671875 -11.1875 L 7.859375 -11.125 C 7.566406 -11.09375 7.128906 -11.078125 6.546875 -11.078125 C 6.160156 -11.078125 5.707031 -11.085938 5.1875 -11.109375 L 3.296875 -11.125 L 3.296875 -7.953125 L 4.546875 -7.953125 C 5.429688 -7.953125 6.253906 -7.929688 7.015625 -7.890625 L 8.1875 -7.859375 L 8.1875 -5.921875 L 3.375 -5.921875 L 3.375 -2.890625 L 5.640625 -2.890625 C 7.171875 -2.890625 8.109375 -2.867188 8.453125 -2.828125 L 8.96875 -2.796875 L 8.96875 -1.828125 C 8.96875 -1.191406 8.945312 -0.851562 8.90625 -0.8125 C 8.894531 -0.8125 8.742188 -0.8125 8.453125 -0.8125 C 7.867188 -0.8125 6.742188 -0.820312 5.078125 -0.84375 L 1.359375 -0.875 L 1.3125 -1.4375 C 1.289062 -1.726562 1.265625 -3.726562 1.234375 -7.4375 Z M 1.234375 -7.4375 "/></g></g></g><g fill="#ffffff" fill-opacity="1"><g transform="translate(156.684196, 27.362033)"><g><path d="M 3.984375 -13.15625 C 4.253906 -13.195312 4.546875 -13.21875 4.859375 -13.21875 C 5.242188 -13.21875 5.769531 -13.179688 6.4375 -13.109375 C 7.101562 -13.035156 7.675781 -12.882812 8.15625 -12.65625 L 8.40625 -12.546875 L 8.15625 -11.625 C 8.03125 -11.09375 7.953125 -10.769531 7.921875 -10.65625 C 7.890625 -10.539062 7.847656 -10.484375 7.796875 -10.484375 C 7.785156 -10.484375 7.769531 -10.484375 7.75 -10.484375 C 7.050781 -10.722656 6.59375 -10.863281 6.375 -10.90625 C 6.15625 -10.945312 5.765625 -10.96875 5.203125 -10.96875 C 4.710938 -10.96875 4.382812 -10.953125 4.21875 -10.921875 C 4.050781 -10.898438 3.894531 -10.847656 3.75 -10.765625 C 3.425781 -10.566406 3.234375 -10.335938 3.171875 -10.078125 C 3.109375 -9.828125 3.078125 -9.648438 3.078125 -9.546875 C 3.078125 -9.335938 3.128906 -9.148438 3.234375 -8.984375 C 3.378906 -8.773438 3.585938 -8.601562 3.859375 -8.46875 C 4.128906 -8.34375 4.597656 -8.175781 5.265625 -7.96875 C 6.578125 -7.5625 7.507812 -7.101562 8.0625 -6.59375 C 8.625 -6.082031 8.90625 -5.332031 8.90625 -4.34375 C 8.90625 -4.320312 8.90625 -4.296875 8.90625 -4.265625 C 8.90625 -3.398438 8.695312 -2.65625 8.28125 -2.03125 C 7.875 -1.40625 7.28125 -0.972656 6.5 -0.734375 C 6.15625 -0.640625 5.566406 -0.59375 4.734375 -0.59375 C 3.898438 -0.59375 3.234375 -0.644531 2.734375 -0.75 C 2.148438 -0.875 1.644531 -1.007812 1.21875 -1.15625 C 0.800781 -1.300781 0.59375 -1.414062 0.59375 -1.5 C 0.613281 -1.550781 0.703125 -1.882812 0.859375 -2.5 C 0.960938 -2.90625 1.046875 -3.171875 1.109375 -3.296875 C 1.179688 -3.421875 1.25 -3.484375 1.3125 -3.484375 C 1.320312 -3.484375 1.328125 -3.484375 1.328125 -3.484375 C 1.484375 -3.484375 1.835938 -3.398438 2.390625 -3.234375 C 3.378906 -2.941406 4.222656 -2.796875 4.921875 -2.796875 C 4.992188 -2.796875 5.226562 -2.800781 5.625 -2.8125 C 6.03125 -2.832031 6.375 -3.035156 6.65625 -3.421875 C 6.78125 -3.597656 6.847656 -3.753906 6.859375 -3.890625 C 6.867188 -4.023438 6.875 -4.109375 6.875 -4.140625 C 6.875 -4.304688 6.84375 -4.460938 6.78125 -4.609375 C 6.65625 -4.859375 6.429688 -5.070312 6.109375 -5.25 C 5.785156 -5.425781 5.25 -5.628906 4.5 -5.859375 C 3.726562 -6.046875 3.132812 -6.253906 2.71875 -6.484375 C 2.300781 -6.722656 1.953125 -6.945312 1.671875 -7.15625 C 1.140625 -7.550781 0.851562 -7.972656 0.8125 -8.421875 C 0.769531 -8.878906 0.75 -9.179688 0.75 -9.328125 C 0.75 -9.941406 0.878906 -10.539062 1.140625 -11.125 C 1.359375 -11.65625 1.726562 -12.101562 2.25 -12.46875 C 2.769531 -12.832031 3.347656 -13.0625 3.984375 -13.15625 Z M 3.984375 -13.15625 "/></g></g></g></svg>