<svg xmlns="http://www.w3.org/2000/svg" xmlns:xlink="http://www.w3.org/1999/xlink" width="500" zoomAndPan="magnify" viewBox="0 0 375 374.999991" height="500" preserveAspectRatio="xMidYMid meet" version="1.0"><defs><g/><clipPath id="2f6ac5b93b"><path d="M 128.460938 203.667969 L 246.589844 203.667969 L 246.589844 226.839844 L 128.460938 226.839844 Z M 128.460938 203.667969 " clip-rule="nonzero"/></clipPath><clipPath id="f4dc4c6f54"><path d="M 187.5 203.667969 C 154.894531 203.667969 128.460938 208.855469 128.460938 215.253906 C 128.460938 221.652344 154.894531 226.839844 187.5 226.839844 C 220.105469 226.839844 246.539062 221.652344 246.539062 215.253906 C 246.539062 208.855469 220.105469 203.667969 187.5 203.667969 Z M 187.5 203.667969 " clip-rule="nonzero"/></clipPath><clipPath id="d459ae96ee"><path d="M 158 99.550781 L 217 99.550781 L 217 217.300781 L 158 217.300781 Z M 158 99.550781 " clip-rule="nonzero"/></clipPath><clipPath id="92a6caf90e"><path d="M 154.664062 114.453125 L 220.636719 114.453125 L 220.636719 136.558594 L 154.664062 136.558594 Z M 154.664062 114.453125 " clip-rule="nonzero"/></clipPath></defs><g clip-path="url(#2f6ac5b93b)"><g clip-path="url(#f4dc4c6f54)"><path fill="#e6e6e6" d="M 128.460938 203.667969 L 246.5 203.667969 L 246.5 226.839844 L 128.460938 226.839844 Z M 128.460938 203.667969 " fill-opacity="1" fill-rule="nonzero"/></g></g><g clip-path="url(#d459ae96ee)"><path fill="#232221" d="M 188.074219 152.871094 C 182.859375 152.871094 177.722656 152.09375 174.328125 150.796875 C 167.953125 148.359375 160.507812 142.09375 160.507812 132.457031 C 160.507812 122.109375 165.351562 108.117188 167.910156 102.167969 L 168.175781 101.550781 L 207.578125 101.550781 L 207.839844 102.175781 C 210.820312 109.304688 214.261719 122.066406 214.765625 131.671875 C 215.195312 139.878906 210.863281 146.035156 201.519531 150.488281 C 198.300781 152.023438 193.523438 152.871094 188.074219 152.871094 Z M 216.804688 131.566406 C 216.285156 121.667969 212.757812 108.363281 209.441406 100.730469 C 209.117188 99.984375 208.382812 99.511719 207.570312 99.511719 L 168.179688 99.511719 C 167.375 99.511719 166.640625 99.980469 166.316406 100.714844 C 162.902344 108.425781 158.464844 122.539062 158.464844 132.457031 C 158.464844 148.617188 175.691406 151.304688 182.398438 159.808594 C 187.050781 172.960938 184.886719 208.53125 184.886719 208.53125 C 178.898438 214.753906 165.273438 211.78125 165.371094 216.304688 C 169.953125 218.011719 204.917969 217.804688 209.976562 216.304688 C 208.148438 211.441406 196.449219 214.753906 190.464844 208.53125 C 190.464844 208.53125 188.199219 165.953125 192.847656 159.808594 C 201.210938 150.414062 217.671875 148.121094 216.804688 131.566406 " fill-opacity="1" fill-rule="nonzero"/></g><path fill="#86181c" d="M 188.074219 151.28125 C 183.042969 151.28125 178.117188 150.546875 174.894531 149.316406 C 168.707031 146.949219 162.097656 141.277344 162.097656 132.457031 C 162.097656 122.558594 166.675781 109.164062 169.226562 103.136719 L 206.515625 103.136719 C 209.414062 110.203125 212.691406 122.480469 213.179688 131.753906 C 213.570312 139.25 209.535156 144.910156 200.835938 149.058594 C 197.824219 150.492188 193.292969 151.28125 188.074219 151.28125 " fill-opacity="1" fill-rule="nonzero"/><g clip-path="url(#92a6caf90e)"><path fill="#232221" d="M 215.007812 124.933594 C 214.355469 130.0625 211.402344 134.457031 204.332031 134.457031 C 202.410156 134.457031 200.804688 134.171875 199.46875 133.667969 C 198.644531 133.351562 197.925781 132.960938 197.300781 132.496094 C 194.671875 130.554688 193.730469 127.433594 193.730469 124.371094 C 193.730469 123.21875 193.875 122.222656 194.148438 121.367188 C 194.386719 120.617188 194.726562 119.976562 195.148438 119.425781 C 196.9375 117.117188 200.269531 116.46875 204.332031 116.46875 C 207.683594 116.46875 210.085938 116.824219 211.757812 117.53125 C 214.078125 118.503906 215 120.144531 215.125 122.429688 C 215.167969 123.191406 215.121094 124.027344 215.007812 124.933594 Z M 178 132.496094 C 177.375 132.960938 176.652344 133.351562 175.828125 133.667969 C 174.496094 134.171875 172.890625 134.457031 170.96875 134.457031 C 163.898438 134.457031 160.941406 130.0625 160.292969 124.933594 C 160.179688 124.027344 160.128906 123.191406 160.171875 122.429688 C 160.296875 120.144531 161.222656 118.503906 163.539062 117.53125 C 165.214844 116.824219 167.613281 116.46875 170.96875 116.46875 C 175.027344 116.46875 178.363281 117.117188 180.148438 119.425781 C 180.574219 119.976562 180.910156 120.617188 181.148438 121.367188 C 181.421875 122.222656 181.566406 123.21875 181.566406 124.371094 C 181.566406 127.433594 180.628906 130.554688 178 132.496094 Z M 220.21875 117.71875 C 220.21875 117.71875 211.738281 114.996094 210.191406 114.996094 C 208.582031 114.652344 206.648438 114.492188 204.332031 114.492188 C 200.453125 114.492188 197.707031 115.078125 195.6875 116.335938 C 194.867188 116.84375 194.175781 117.464844 193.613281 118.183594 C 192.269531 117.46875 191.269531 116.984375 187.792969 116.984375 C 184.289062 116.984375 183.238281 117.476562 181.761719 118.277344 C 181.183594 117.515625 180.46875 116.867188 179.613281 116.335938 C 177.59375 115.078125 174.847656 114.492188 170.96875 114.492188 C 168.652344 114.492188 166.71875 114.652344 165.105469 114.996094 C 163.5625 114.996094 155.078125 117.71875 155.078125 117.71875 C 154.835938 117.785156 154.664062 118.007812 154.664062 118.265625 L 154.664062 121.863281 C 154.664062 122.175781 154.917969 122.429688 155.226562 122.429688 L 155.390625 122.429688 C 156.90625 122.429688 158.164062 123.589844 158.316406 125.066406 C 158.320312 125.105469 158.328125 125.144531 158.328125 125.183594 C 158.335938 125.246094 158.347656 125.3125 158.359375 125.375 C 159.320312 132.40625 163.910156 136.433594 170.96875 136.433594 C 173.382812 136.433594 175.484375 136.027344 177.253906 135.222656 C 178.007812 134.878906 178.703125 134.460938 179.332031 133.972656 C 179.875 133.554688 180.367188 133.085938 180.816406 132.566406 C 182.605469 130.488281 183.546875 127.65625 183.546875 124.371094 C 183.546875 123.230469 183.417969 122.183594 183.167969 121.238281 C 184.4375 120.476562 184.703125 119.964844 187.792969 120.074219 C 189.34375 120.128906 190.820312 120.453125 192.160156 121.117188 C 191.890625 122.097656 191.75 123.179688 191.75 124.371094 C 191.75 127.65625 192.695312 130.488281 194.480469 132.566406 C 194.929688 133.085938 195.425781 133.554688 195.964844 133.972656 C 196.597656 134.460938 197.289062 134.878906 198.042969 135.222656 C 199.8125 136.027344 201.914062 136.433594 204.332031 136.433594 C 211.390625 136.433594 215.980469 132.40625 216.945312 125.375 C 216.953125 125.3125 216.960938 125.246094 216.96875 125.183594 C 216.976562 125.144531 216.980469 125.105469 216.984375 125.066406 C 217.132812 123.589844 218.394531 122.429688 219.910156 122.429688 L 220.070312 122.429688 C 220.382812 122.429688 220.636719 122.175781 220.636719 121.863281 L 220.636719 118.265625 C 220.636719 118.007812 220.464844 117.785156 220.21875 117.71875 " fill-opacity="1" fill-rule="nonzero"/></g><path fill="#ffffff" d="M 181.566406 124.371094 C 181.566406 127.433594 180.628906 130.554688 178 132.496094 C 177.375 132.960938 176.652344 133.351562 175.828125 133.667969 C 174.496094 134.171875 172.890625 134.457031 170.96875 134.457031 C 163.898438 134.457031 160.941406 130.0625 160.292969 124.933594 C 160.179688 124.027344 160.128906 123.191406 160.171875 122.429688 C 160.296875 120.144531 161.222656 118.503906 163.539062 117.53125 C 165.214844 116.824219 167.613281 116.46875 170.96875 116.46875 C 175.027344 116.46875 178.363281 117.117188 180.148438 119.425781 C 180.574219 119.976562 180.910156 120.617188 181.148438 121.367188 C 181.421875 122.222656 181.566406 123.21875 181.566406 124.371094 " fill-opacity="1" fill-rule="nonzero"/><path fill="#ffffff" d="M 215.007812 124.933594 C 214.355469 130.0625 211.402344 134.457031 204.332031 134.457031 C 202.410156 134.457031 200.804688 134.171875 199.46875 133.667969 C 198.644531 133.351562 197.925781 132.960938 197.300781 132.496094 C 194.671875 130.554688 193.730469 127.433594 193.730469 124.371094 C 193.730469 123.21875 193.875 122.222656 194.148438 121.367188 C 194.386719 120.617188 194.726562 119.976562 195.148438 119.425781 C 196.9375 117.117188 200.269531 116.46875 204.332031 116.46875 C 207.683594 116.46875 210.085938 116.824219 211.757812 117.53125 C 214.078125 118.503906 215 120.144531 215.125 122.429688 C 215.167969 123.191406 215.121094 124.027344 215.007812 124.933594 " fill-opacity="1" fill-rule="nonzero"/><path fill="#232221" d="M 173.34375 125.316406 L 175.117188 122.746094 C 174.46875 122.15625 173.601562 121.796875 172.652344 121.796875 C 170.625 121.796875 168.980469 123.4375 168.980469 125.460938 C 168.980469 127.488281 170.625 129.128906 172.652344 129.128906 C 174.683594 129.128906 176.324219 127.488281 176.324219 125.460938 C 176.324219 125.335938 176.320312 125.207031 176.308594 125.082031 L 173.34375 125.316406 " fill-opacity="1" fill-rule="nonzero"/><path fill="#232221" d="M 206.308594 125.082031 L 203.34375 125.316406 L 205.117188 122.746094 C 204.464844 122.15625 203.601562 121.796875 202.652344 121.796875 C 200.625 121.796875 198.976562 123.4375 198.976562 125.460938 C 198.976562 127.488281 200.625 129.128906 202.652344 129.128906 C 204.683594 129.128906 206.324219 127.488281 206.324219 125.460938 C 206.324219 125.335938 206.320312 125.207031 206.308594 125.082031 " fill-opacity="1" fill-rule="nonzero"/><g fill="#232221" fill-opacity="1"><g transform="translate(94.710936, 255.432962)"><g><path d="M 5.636719 0 L 10.339844 0 L 10.339844 -12 L 15.320312 -12 L 15.320312 -16.375 L 0.65625 -16.375 L 0.65625 -12 L 5.636719 -12 Z M 5.636719 0 "/></g></g></g><g fill="#232221" fill-opacity="1"><g transform="translate(110.686749, 255.432962)"><g><path d="M 1.566406 0 L 6.058594 0 L 6.058594 -5.285156 C 6.058594 -7.390625 6.972656 -8.351562 8.984375 -8.351562 L 10.410156 -8.351562 L 10.410156 -12.375 L 8.960938 -12.375 C 7.226562 -12.375 6.128906 -11.90625 5.355469 -10.832031 L 4.796875 -12.375 L 1.566406 -12.375 Z M 1.566406 0 "/></g></g></g><g fill="#232221" fill-opacity="1"><g transform="translate(121.820694, 255.432962)"><g><path d="M 5.683594 0.28125 C 7.460938 0.28125 8.960938 -0.304688 10.011719 -1.355469 L 10.503906 0 L 13.730469 0 L 13.730469 -7.203125 C 13.730469 -10.738281 11.507812 -12.726562 7.53125 -12.726562 C 4.070312 -12.726562 1.988281 -11.160156 1.613281 -8.304688 L 5.824219 -8.304688 C 5.941406 -9.03125 6.644531 -9.519531 7.554688 -9.519531 C 8.5625 -9.519531 9.355469 -8.9375 9.355469 -8.117188 L 9.355469 -7.414062 L 5.191406 -7.414062 C 2.644531 -7.414062 1.007812 -5.894531 1.007812 -3.625 C 1.007812 -1.214844 2.832031 0.28125 5.683594 0.28125 Z M 5.402344 -3.835938 C 5.402344 -4.539062 6.011719 -4.960938 6.972656 -4.960938 L 9.402344 -4.960938 C 9.402344 -3.601562 8.375 -2.691406 7.019531 -2.691406 C 6.058594 -2.691406 5.402344 -3.132812 5.402344 -3.835938 Z M 5.402344 -3.835938 "/></g></g></g><g fill="#232221" fill-opacity="1"><g transform="translate(136.884276, 255.432962)"><g><path d="M 1.566406 0 L 6.058594 0 L 6.058594 -12.375 L 1.566406 -12.375 Z M 1.121094 -16.609375 C 1.121094 -15.066406 2.246094 -13.988281 3.8125 -13.988281 C 5.378906 -13.988281 6.503906 -15.066406 6.503906 -16.609375 C 6.503906 -18.152344 5.378906 -19.207031 3.8125 -19.207031 C 2.246094 -19.207031 1.121094 -18.152344 1.121094 -16.609375 Z M 1.121094 -16.609375 "/></g></g></g><g fill="#232221" fill-opacity="1"><g transform="translate(144.509623, 255.432962)"><g><path d="M 7.859375 0 L 10.363281 0 L 10.363281 -3.789062 L 9.078125 -3.789062 C 7.765625 -3.789062 7.15625 -4.375 7.15625 -5.660156 L 7.15625 -8.84375 L 10.199219 -8.84375 L 10.199219 -12.375 L 7.15625 -12.375 L 7.15625 -15.625 L 3.671875 -15.625 L 3.4375 -14.011719 C 3.25 -12.726562 2.902344 -12.375 1.496094 -12.375 L 0.375 -12.375 L 0.375 -8.84375 L 2.667969 -8.84375 L 2.667969 -4.796875 C 2.667969 -1.660156 4.46875 0 7.859375 0 Z M 7.859375 0 "/></g></g></g><g fill="#232221" fill-opacity="1"><g transform="translate(155.783918, 255.432962)"><g><path d="M 6.457031 0.351562 C 9.964844 0.351562 12.046875 -1.121094 12.046875 -3.601562 C 12.046875 -5.707031 10.597656 -6.996094 7.578125 -7.578125 C 5.707031 -7.929688 5.167969 -8.234375 5.167969 -8.84375 C 5.167969 -9.378906 5.613281 -9.683594 6.269531 -9.683594 C 7.089844 -9.683594 7.554688 -9.261719 7.601562 -8.515625 L 11.859375 -8.515625 C 11.695312 -11.25 9.777344 -12.726562 6.316406 -12.726562 C 2.785156 -12.726562 0.867188 -11.34375 0.867188 -8.84375 C 0.867188 -6.738281 2.222656 -5.519531 5.308594 -4.9375 C 6.949219 -4.609375 7.625 -4.210938 7.625 -3.625 C 7.625 -3.085938 7.203125 -2.761719 6.503906 -2.761719 C 5.683594 -2.761719 5.144531 -3.273438 5.144531 -4.023438 L 0.75 -4.023438 C 0.75 -1.378906 2.996094 0.351562 6.457031 0.351562 Z M 6.457031 0.351562 "/></g></g></g><g fill="#232221" fill-opacity="1"><g transform="translate(168.62539, 255.432962)"><g/></g></g><g fill="#232221" fill-opacity="1"><g transform="translate(174.028626, 255.432962)"><g><path d="M 7.019531 0.351562 C 8.726562 0.351562 10.269531 -0.0703125 11.578125 -0.796875 L 12.351562 0 L 16.960938 0 L 14.105469 -3.019531 C 15.113281 -4.351562 15.695312 -6.011719 15.71875 -7.859375 L 12.070312 -7.859375 C 12.046875 -7.089844 11.859375 -6.386719 11.53125 -5.753906 L 9.824219 -7.578125 C 11.953125 -8.703125 13.101562 -10.292969 13.101562 -12.257812 C 13.101562 -14.972656 10.902344 -16.726562 7.484375 -16.726562 C 4.117188 -16.726562 1.917969 -15.019531 1.917969 -12.46875 C 1.917969 -11.273438 2.386719 -10.222656 3.648438 -8.773438 C 1.730469 -7.71875 0.65625 -6.152344 0.65625 -4.28125 C 0.65625 -1.472656 3.15625 0.351562 7.019531 0.351562 Z M 5.03125 -4.632812 C 5.03125 -5.261719 5.378906 -5.753906 6.152344 -6.152344 L 8.796875 -3.414062 C 8.28125 -3.25 7.742188 -3.15625 7.179688 -3.15625 C 5.800781 -3.15625 5.03125 -3.695312 5.03125 -4.632812 Z M 6.082031 -12.09375 C 6.082031 -12.796875 6.621094 -13.214844 7.484375 -13.214844 C 8.398438 -13.214844 8.9375 -12.773438 8.9375 -12 C 8.9375 -11.25 8.445312 -10.644531 7.390625 -10.175781 C 6.316406 -11.320312 6.082031 -11.648438 6.082031 -12.09375 Z M 6.082031 -12.09375 "/></g></g></g><g fill="#232221" fill-opacity="1"><g transform="translate(191.454658, 255.432962)"><g/></g></g><g fill="#232221" fill-opacity="1"><g transform="translate(196.857894, 255.432962)"><g><path d="M 5.636719 0 L 10.339844 0 L 10.339844 -12 L 15.320312 -12 L 15.320312 -16.375 L 0.65625 -16.375 L 0.65625 -12 L 5.636719 -12 Z M 5.636719 0 "/></g></g></g><g fill="#232221" fill-opacity="1"><g transform="translate(212.833708, 255.432962)"><g><path d="M 5.683594 0.28125 C 7.460938 0.28125 8.960938 -0.304688 10.011719 -1.355469 L 10.503906 0 L 13.730469 0 L 13.730469 -7.203125 C 13.730469 -10.738281 11.507812 -12.726562 7.53125 -12.726562 C 4.070312 -12.726562 1.988281 -11.160156 1.613281 -8.304688 L 5.824219 -8.304688 C 5.941406 -9.03125 6.644531 -9.519531 7.554688 -9.519531 C 8.5625 -9.519531 9.355469 -8.9375 9.355469 -8.117188 L 9.355469 -7.414062 L 5.191406 -7.414062 C 2.644531 -7.414062 1.007812 -5.894531 1.007812 -3.625 C 1.007812 -1.214844 2.832031 0.28125 5.683594 0.28125 Z M 5.402344 -3.835938 C 5.402344 -4.539062 6.011719 -4.960938 6.972656 -4.960938 L 9.402344 -4.960938 C 9.402344 -3.601562 8.375 -2.691406 7.019531 -2.691406 C 6.058594 -2.691406 5.402344 -3.132812 5.402344 -3.835938 Z M 5.402344 -3.835938 "/></g></g></g><g fill="#232221" fill-opacity="1"><g transform="translate(227.89729, 255.432962)"><g><path d="M 6.457031 0.351562 C 9.964844 0.351562 12.046875 -1.121094 12.046875 -3.601562 C 12.046875 -5.707031 10.597656 -6.996094 7.578125 -7.578125 C 5.707031 -7.929688 5.167969 -8.234375 5.167969 -8.84375 C 5.167969 -9.378906 5.613281 -9.683594 6.269531 -9.683594 C 7.089844 -9.683594 7.554688 -9.261719 7.601562 -8.515625 L 11.859375 -8.515625 C 11.695312 -11.25 9.777344 -12.726562 6.316406 -12.726562 C 2.785156 -12.726562 0.867188 -11.34375 0.867188 -8.84375 C 0.867188 -6.738281 2.222656 -5.519531 5.308594 -4.9375 C 6.949219 -4.609375 7.625 -4.210938 7.625 -3.625 C 7.625 -3.085938 7.203125 -2.761719 6.503906 -2.761719 C 5.683594 -2.761719 5.144531 -3.273438 5.144531 -4.023438 L 0.75 -4.023438 C 0.75 -1.378906 2.996094 0.351562 6.457031 0.351562 Z M 6.457031 0.351562 "/></g></g></g><g fill="#232221" fill-opacity="1"><g transform="translate(240.738763, 255.432962)"><g><path d="M 7.859375 0 L 10.363281 0 L 10.363281 -3.789062 L 9.078125 -3.789062 C 7.765625 -3.789062 7.15625 -4.375 7.15625 -5.660156 L 7.15625 -8.84375 L 10.199219 -8.84375 L 10.199219 -12.375 L 7.15625 -12.375 L 7.15625 -15.625 L 3.671875 -15.625 L 3.4375 -14.011719 C 3.25 -12.726562 2.902344 -12.375 1.496094 -12.375 L 0.375 -12.375 L 0.375 -8.84375 L 2.667969 -8.84375 L 2.667969 -4.796875 C 2.667969 -1.660156 4.46875 0 7.859375 0 Z M 7.859375 0 "/></g></g></g><g fill="#232221" fill-opacity="1"><g transform="translate(252.013058, 255.432962)"><g><path d="M 7.71875 0.351562 C 10.925781 0.351562 13.378906 -1.238281 14.480469 -4 L 10.128906 -4 C 9.636719 -3.414062 8.773438 -3.042969 7.8125 -3.042969 C 6.550781 -3.042969 5.496094 -3.71875 5.167969 -5.078125 L 14.714844 -5.078125 C 14.949219 -9.683594 12.164062 -12.726562 7.742188 -12.726562 C 3.601562 -12.726562 0.726562 -10.058594 0.726562 -6.199219 C 0.726562 -2.316406 3.578125 0.351562 7.71875 0.351562 Z M 5.191406 -7.507812 C 5.566406 -8.703125 6.550781 -9.355469 7.789062 -9.355469 C 9.144531 -9.355469 10.058594 -8.65625 10.433594 -7.507812 Z M 5.191406 -7.507812 "/></g></g></g><g fill="#232221" fill-opacity="1"><g transform="translate(267.427493, 255.432962)"><g><path d="M 6.457031 0.351562 C 9.964844 0.351562 12.046875 -1.121094 12.046875 -3.601562 C 12.046875 -5.707031 10.597656 -6.996094 7.578125 -7.578125 C 5.707031 -7.929688 5.167969 -8.234375 5.167969 -8.84375 C 5.167969 -9.378906 5.613281 -9.683594 6.269531 -9.683594 C 7.089844 -9.683594 7.554688 -9.261719 7.601562 -8.515625 L 11.859375 -8.515625 C 11.695312 -11.25 9.777344 -12.726562 6.316406 -12.726562 C 2.785156 -12.726562 0.867188 -11.34375 0.867188 -8.84375 C 0.867188 -6.738281 2.222656 -5.519531 5.308594 -4.9375 C 6.949219 -4.609375 7.625 -4.210938 7.625 -3.625 C 7.625 -3.085938 7.203125 -2.761719 6.503906 -2.761719 C 5.683594 -2.761719 5.144531 -3.273438 5.144531 -4.023438 L 0.75 -4.023438 C 0.75 -1.378906 2.996094 0.351562 6.457031 0.351562 Z M 6.457031 0.351562 "/></g></g></g><g fill="#545454" fill-opacity="1"><g transform="translate(116.416725, 272.68648)"><g><path d="M 3.484375 0 L 2.875 0 L 2.875 -8.078125 L 0.0625 -8.078125 L 0.0625 -8.640625 L 6.28125 -8.640625 L 6.28125 -8.078125 L 3.484375 -8.078125 Z M 3.484375 0 "/></g></g></g><g fill="#545454" fill-opacity="1"><g transform="translate(122.757363, 272.68648)"><g><path d="M 3.609375 -6.546875 C 3.878906 -6.546875 4.171875 -6.519531 4.484375 -6.46875 L 4.375 -5.90625 C 4.101562 -5.96875 3.820312 -6 3.53125 -6 C 2.988281 -6 2.539062 -5.765625 2.1875 -5.296875 C 1.832031 -4.835938 1.65625 -4.253906 1.65625 -3.546875 L 1.65625 0 L 1.078125 0 L 1.078125 -6.421875 L 1.578125 -6.421875 L 1.625 -5.265625 L 1.671875 -5.265625 C 1.929688 -5.742188 2.210938 -6.078125 2.515625 -6.265625 C 2.816406 -6.453125 3.179688 -6.546875 3.609375 -6.546875 Z M 3.609375 -6.546875 "/></g></g></g><g fill="#545454" fill-opacity="1"><g transform="translate(127.467045, 272.68648)"><g><path d="M 4.984375 0 L 4.828125 -1.015625 L 4.78125 -1.015625 C 4.457031 -0.597656 4.125 -0.300781 3.78125 -0.125 C 3.445312 0.0390625 3.046875 0.125 2.578125 0.125 C 1.941406 0.125 1.445312 -0.0351562 1.09375 -0.359375 C 0.75 -0.679688 0.578125 -1.128906 0.578125 -1.703125 C 0.578125 -2.335938 0.835938 -2.828125 1.359375 -3.171875 C 1.878906 -3.515625 2.632812 -3.695312 3.625 -3.71875 L 4.859375 -3.75 L 4.859375 -4.1875 C 4.859375 -4.789062 4.734375 -5.25 4.484375 -5.5625 C 4.234375 -5.875 3.832031 -6.03125 3.28125 -6.03125 C 2.6875 -6.03125 2.070312 -5.863281 1.4375 -5.53125 L 1.21875 -6.046875 C 1.914062 -6.378906 2.613281 -6.546875 3.3125 -6.546875 C 4.007812 -6.546875 4.53125 -6.359375 4.875 -5.984375 C 5.226562 -5.617188 5.40625 -5.050781 5.40625 -4.28125 L 5.40625 0 Z M 2.609375 -0.40625 C 3.296875 -0.40625 3.835938 -0.601562 4.234375 -1 C 4.628906 -1.394531 4.828125 -1.941406 4.828125 -2.640625 L 4.828125 -3.265625 L 3.703125 -3.21875 C 2.804688 -3.175781 2.164062 -3.035156 1.78125 -2.796875 C 1.394531 -2.554688 1.203125 -2.1875 1.203125 -1.6875 C 1.203125 -1.28125 1.320312 -0.960938 1.5625 -0.734375 C 1.8125 -0.515625 2.160156 -0.40625 2.609375 -0.40625 Z M 2.609375 -0.40625 "/></g></g></g><g fill="#545454" fill-opacity="1"><g transform="translate(133.878594, 272.68648)"><g><path d="M 1.65625 0 L 1.078125 0 L 1.078125 -6.421875 L 1.65625 -6.421875 Z M 1 -8.21875 C 1 -8.59375 1.117188 -8.78125 1.359375 -8.78125 C 1.484375 -8.78125 1.578125 -8.726562 1.640625 -8.625 C 1.710938 -8.53125 1.75 -8.394531 1.75 -8.21875 C 1.75 -8.039062 1.710938 -7.898438 1.640625 -7.796875 C 1.578125 -7.691406 1.484375 -7.640625 1.359375 -7.640625 C 1.117188 -7.640625 1 -7.832031 1 -8.21875 Z M 1 -8.21875 "/></g></g></g><g fill="#545454" fill-opacity="1"><g transform="translate(136.614585, 272.68648)"><g><path d="M 2.765625 -0.40625 C 3.140625 -0.40625 3.46875 -0.4375 3.75 -0.5 L 3.75 -0.03125 C 3.457031 0.0703125 3.128906 0.125 2.765625 0.125 C 2.191406 0.125 1.769531 -0.0234375 1.5 -0.328125 C 1.226562 -0.640625 1.09375 -1.117188 1.09375 -1.765625 L 1.09375 -5.921875 L 0.140625 -5.921875 L 0.140625 -6.265625 L 1.09375 -6.53125 L 1.390625 -7.984375 L 1.703125 -7.984375 L 1.703125 -6.421875 L 3.578125 -6.421875 L 3.578125 -5.921875 L 1.703125 -5.921875 L 1.703125 -1.84375 C 1.703125 -1.351562 1.785156 -0.988281 1.953125 -0.75 C 2.128906 -0.519531 2.398438 -0.40625 2.765625 -0.40625 Z M 2.765625 -0.40625 "/></g></g></g><g fill="#545454" fill-opacity="1"><g transform="translate(140.668336, 272.68648)"><g><path d="M 5.0625 -1.671875 C 5.0625 -1.097656 4.84375 -0.65625 4.40625 -0.34375 C 3.96875 -0.03125 3.347656 0.125 2.546875 0.125 C 1.679688 0.125 1 -0.0078125 0.5 -0.28125 L 0.5 -0.90625 C 1.144531 -0.582031 1.828125 -0.421875 2.546875 -0.421875 C 3.179688 -0.421875 3.660156 -0.523438 3.984375 -0.734375 C 4.316406 -0.953125 4.484375 -1.234375 4.484375 -1.578125 C 4.484375 -1.898438 4.351562 -2.171875 4.09375 -2.390625 C 3.832031 -2.617188 3.398438 -2.835938 2.796875 -3.046875 C 2.148438 -3.285156 1.695312 -3.488281 1.4375 -3.65625 C 1.175781 -3.820312 0.976562 -4.007812 0.84375 -4.21875 C 0.71875 -4.425781 0.65625 -4.679688 0.65625 -4.984375 C 0.65625 -5.472656 0.859375 -5.851562 1.265625 -6.125 C 1.671875 -6.40625 2.234375 -6.546875 2.953125 -6.546875 C 3.648438 -6.546875 4.3125 -6.414062 4.9375 -6.15625 L 4.71875 -5.625 C 4.082031 -5.882812 3.492188 -6.015625 2.953125 -6.015625 C 2.429688 -6.015625 2.015625 -5.925781 1.703125 -5.75 C 1.398438 -5.582031 1.25 -5.34375 1.25 -5.03125 C 1.25 -4.695312 1.367188 -4.429688 1.609375 -4.234375 C 1.847656 -4.035156 2.3125 -3.8125 3 -3.5625 C 3.582031 -3.351562 4.003906 -3.164062 4.265625 -3 C 4.535156 -2.832031 4.734375 -2.640625 4.859375 -2.421875 C 4.992188 -2.210938 5.0625 -1.960938 5.0625 -1.671875 Z M 5.0625 -1.671875 "/></g></g></g><g fill="#545454" fill-opacity="1"><g transform="translate(146.305768, 272.68648)"><g/></g></g><g fill="#545454" fill-opacity="1"><g transform="translate(149.449493, 272.68648)"><g><path d="M 1.828125 0 L 1.21875 0 L 1.21875 -8.640625 L 5.953125 -8.640625 L 5.953125 -8.09375 L 1.828125 -8.09375 L 1.828125 -4.421875 L 5.734375 -4.421875 L 5.734375 -3.859375 L 1.828125 -3.859375 Z M 1.828125 0 "/></g></g></g><g fill="#545454" fill-opacity="1"><g transform="translate(155.52421, 272.68648)"><g><path d="M 1.65625 0 L 1.078125 0 L 1.078125 -9.203125 L 1.65625 -9.203125 Z M 1.65625 0 "/></g></g></g><g fill="#545454" fill-opacity="1"><g transform="translate(158.260201, 272.68648)"><g><path d="M 6.390625 -3.21875 C 6.390625 -2.175781 6.132812 -1.359375 5.625 -0.765625 C 5.113281 -0.171875 4.414062 0.125 3.53125 0.125 C 2.957031 0.125 2.457031 -0.0078125 2.03125 -0.28125 C 1.601562 -0.5625 1.273438 -0.953125 1.046875 -1.453125 C 0.816406 -1.960938 0.703125 -2.550781 0.703125 -3.21875 C 0.703125 -4.269531 0.957031 -5.085938 1.46875 -5.671875 C 1.976562 -6.253906 2.675781 -6.546875 3.5625 -6.546875 C 4.445312 -6.546875 5.140625 -6.25 5.640625 -5.65625 C 6.140625 -5.0625 6.390625 -4.25 6.390625 -3.21875 Z M 1.3125 -3.21875 C 1.3125 -2.332031 1.503906 -1.640625 1.890625 -1.140625 C 2.285156 -0.648438 2.835938 -0.40625 3.546875 -0.40625 C 4.253906 -0.40625 4.800781 -0.648438 5.1875 -1.140625 C 5.582031 -1.640625 5.78125 -2.332031 5.78125 -3.21875 C 5.78125 -4.101562 5.582031 -4.789062 5.1875 -5.28125 C 4.789062 -5.769531 4.238281 -6.015625 3.53125 -6.015625 C 2.820312 -6.015625 2.273438 -5.769531 1.890625 -5.28125 C 1.503906 -4.800781 1.3125 -4.113281 1.3125 -3.21875 Z M 1.3125 -3.21875 "/></g></g></g><g fill="#545454" fill-opacity="1"><g transform="translate(165.35131, 272.68648)"><g><path d="M 6.21875 0 L 4.8125 -4.296875 C 4.71875 -4.585938 4.597656 -5.015625 4.453125 -5.578125 L 4.421875 -5.578125 L 4.296875 -5.140625 L 4.03125 -4.28125 L 2.609375 0 L 2.015625 0 L 0.1875 -6.421875 L 0.8125 -6.421875 L 1.84375 -2.703125 C 2.082031 -1.773438 2.238281 -1.097656 2.3125 -0.671875 L 2.34375 -0.671875 C 2.582031 -1.585938 2.753906 -2.195312 2.859375 -2.5 L 4.1875 -6.421875 L 4.71875 -6.421875 L 5.96875 -2.515625 C 6.25 -1.585938 6.425781 -0.976562 6.5 -0.6875 L 6.53125 -0.6875 C 6.5625 -0.9375 6.71875 -1.617188 7 -2.734375 L 7.984375 -6.421875 L 8.578125 -6.421875 L 6.828125 0 Z M 6.21875 0 "/></g></g></g><g fill="#545454" fill-opacity="1"><g transform="translate(174.102925, 272.68648)"><g><path d="M 5.0625 -1.671875 C 5.0625 -1.097656 4.84375 -0.65625 4.40625 -0.34375 C 3.96875 -0.03125 3.347656 0.125 2.546875 0.125 C 1.679688 0.125 1 -0.0078125 0.5 -0.28125 L 0.5 -0.90625 C 1.144531 -0.582031 1.828125 -0.421875 2.546875 -0.421875 C 3.179688 -0.421875 3.660156 -0.523438 3.984375 -0.734375 C 4.316406 -0.953125 4.484375 -1.234375 4.484375 -1.578125 C 4.484375 -1.898438 4.351562 -2.171875 4.09375 -2.390625 C 3.832031 -2.617188 3.398438 -2.835938 2.796875 -3.046875 C 2.148438 -3.285156 1.695312 -3.488281 1.4375 -3.65625 C 1.175781 -3.820312 0.976562 -4.007812 0.84375 -4.21875 C 0.71875 -4.425781 0.65625 -4.679688 0.65625 -4.984375 C 0.65625 -5.472656 0.859375 -5.851562 1.265625 -6.125 C 1.671875 -6.40625 2.234375 -6.546875 2.953125 -6.546875 C 3.648438 -6.546875 4.3125 -6.414062 4.9375 -6.15625 L 4.71875 -5.625 C 4.082031 -5.882812 3.492188 -6.015625 2.953125 -6.015625 C 2.429688 -6.015625 2.015625 -5.925781 1.703125 -5.75 C 1.398438 -5.582031 1.25 -5.34375 1.25 -5.03125 C 1.25 -4.695312 1.367188 -4.429688 1.609375 -4.234375 C 1.847656 -4.035156 2.3125 -3.8125 3 -3.5625 C 3.582031 -3.351562 4.003906 -3.164062 4.265625 -3 C 4.535156 -2.832031 4.734375 -2.640625 4.859375 -2.421875 C 4.992188 -2.210938 5.0625 -1.960938 5.0625 -1.671875 Z M 5.0625 -1.671875 "/></g></g></g><g fill="#545454" fill-opacity="1"><g transform="translate(179.740357, 272.68648)"><g><path d="M 1.75 -1.40625 L 1.8125 -1.28125 C 1.519531 -0.238281 1.175781 0.707031 0.78125 1.5625 L 0.40625 1.5625 C 0.707031 0.476562 0.921875 -0.507812 1.046875 -1.40625 Z M 1.75 -1.40625 "/></g></g></g><g fill="#545454" fill-opacity="1"><g transform="translate(182.340431, 272.68648)"><g/></g></g><g fill="#545454" fill-opacity="1"><g transform="translate(185.484156, 272.68648)"><g><path d="M 3.484375 0 L 2.875 0 L 2.875 -8.078125 L 0.0625 -8.078125 L 0.0625 -8.640625 L 6.28125 -8.640625 L 6.28125 -8.078125 L 3.484375 -8.078125 Z M 3.484375 0 "/></g></g></g><g fill="#545454" fill-opacity="1"><g transform="translate(191.824794, 272.68648)"><g><path d="M 4.984375 0 L 4.828125 -1.015625 L 4.78125 -1.015625 C 4.457031 -0.597656 4.125 -0.300781 3.78125 -0.125 C 3.445312 0.0390625 3.046875 0.125 2.578125 0.125 C 1.941406 0.125 1.445312 -0.0351562 1.09375 -0.359375 C 0.75 -0.679688 0.578125 -1.128906 0.578125 -1.703125 C 0.578125 -2.335938 0.835938 -2.828125 1.359375 -3.171875 C 1.878906 -3.515625 2.632812 -3.695312 3.625 -3.71875 L 4.859375 -3.75 L 4.859375 -4.1875 C 4.859375 -4.789062 4.734375 -5.25 4.484375 -5.5625 C 4.234375 -5.875 3.832031 -6.03125 3.28125 -6.03125 C 2.6875 -6.03125 2.070312 -5.863281 1.4375 -5.53125 L 1.21875 -6.046875 C 1.914062 -6.378906 2.613281 -6.546875 3.3125 -6.546875 C 4.007812 -6.546875 4.53125 -6.359375 4.875 -5.984375 C 5.226562 -5.617188 5.40625 -5.050781 5.40625 -4.28125 L 5.40625 0 Z M 2.609375 -0.40625 C 3.296875 -0.40625 3.835938 -0.601562 4.234375 -1 C 4.628906 -1.394531 4.828125 -1.941406 4.828125 -2.640625 L 4.828125 -3.265625 L 3.703125 -3.21875 C 2.804688 -3.175781 2.164062 -3.035156 1.78125 -2.796875 C 1.394531 -2.554688 1.203125 -2.1875 1.203125 -1.6875 C 1.203125 -1.28125 1.320312 -0.960938 1.5625 -0.734375 C 1.8125 -0.515625 2.160156 -0.40625 2.609375 -0.40625 Z M 2.609375 -0.40625 "/></g></g></g><g fill="#545454" fill-opacity="1"><g transform="translate(198.236343, 272.68648)"><g><path d="M 5.0625 -1.671875 C 5.0625 -1.097656 4.84375 -0.65625 4.40625 -0.34375 C 3.96875 -0.03125 3.347656 0.125 2.546875 0.125 C 1.679688 0.125 1 -0.0078125 0.5 -0.28125 L 0.5 -0.90625 C 1.144531 -0.582031 1.828125 -0.421875 2.546875 -0.421875 C 3.179688 -0.421875 3.660156 -0.523438 3.984375 -0.734375 C 4.316406 -0.953125 4.484375 -1.234375 4.484375 -1.578125 C 4.484375 -1.898438 4.351562 -2.171875 4.09375 -2.390625 C 3.832031 -2.617188 3.398438 -2.835938 2.796875 -3.046875 C 2.148438 -3.285156 1.695312 -3.488281 1.4375 -3.65625 C 1.175781 -3.820312 0.976562 -4.007812 0.84375 -4.21875 C 0.71875 -4.425781 0.65625 -4.679688 0.65625 -4.984375 C 0.65625 -5.472656 0.859375 -5.851562 1.265625 -6.125 C 1.671875 -6.40625 2.234375 -6.546875 2.953125 -6.546875 C 3.648438 -6.546875 4.3125 -6.414062 4.9375 -6.15625 L 4.71875 -5.625 C 4.082031 -5.882812 3.492188 -6.015625 2.953125 -6.015625 C 2.429688 -6.015625 2.015625 -5.925781 1.703125 -5.75 C 1.398438 -5.582031 1.25 -5.34375 1.25 -5.03125 C 1.25 -4.695312 1.367188 -4.429688 1.609375 -4.234375 C 1.847656 -4.035156 2.3125 -3.8125 3 -3.5625 C 3.582031 -3.351562 4.003906 -3.164062 4.265625 -3 C 4.535156 -2.832031 4.734375 -2.640625 4.859375 -2.421875 C 4.992188 -2.210938 5.0625 -1.960938 5.0625 -1.671875 Z M 5.0625 -1.671875 "/></g></g></g><g fill="#545454" fill-opacity="1"><g transform="translate(203.873775, 272.68648)"><g><path d="M 2.765625 -0.40625 C 3.140625 -0.40625 3.46875 -0.4375 3.75 -0.5 L 3.75 -0.03125 C 3.457031 0.0703125 3.128906 0.125 2.765625 0.125 C 2.191406 0.125 1.769531 -0.0234375 1.5 -0.328125 C 1.226562 -0.640625 1.09375 -1.117188 1.09375 -1.765625 L 1.09375 -5.921875 L 0.140625 -5.921875 L 0.140625 -6.265625 L 1.09375 -6.53125 L 1.390625 -7.984375 L 1.703125 -7.984375 L 1.703125 -6.421875 L 3.578125 -6.421875 L 3.578125 -5.921875 L 1.703125 -5.921875 L 1.703125 -1.84375 C 1.703125 -1.351562 1.785156 -0.988281 1.953125 -0.75 C 2.128906 -0.519531 2.398438 -0.40625 2.765625 -0.40625 Z M 2.765625 -0.40625 "/></g></g></g><g fill="#545454" fill-opacity="1"><g transform="translate(207.927526, 272.68648)"><g><path d="M 3.671875 0.125 C 2.734375 0.125 2.003906 -0.160156 1.484375 -0.734375 C 0.960938 -1.316406 0.703125 -2.125 0.703125 -3.15625 C 0.703125 -4.1875 0.953125 -5.007812 1.453125 -5.625 C 1.960938 -6.238281 2.644531 -6.546875 3.5 -6.546875 C 4.257812 -6.546875 4.859375 -6.28125 5.296875 -5.75 C 5.734375 -5.226562 5.953125 -4.515625 5.953125 -3.609375 L 5.953125 -3.140625 L 1.3125 -3.140625 C 1.320312 -2.253906 1.53125 -1.578125 1.9375 -1.109375 C 2.34375 -0.640625 2.921875 -0.40625 3.671875 -0.40625 C 4.035156 -0.40625 4.359375 -0.429688 4.640625 -0.484375 C 4.921875 -0.535156 5.269531 -0.648438 5.6875 -0.828125 L 5.6875 -0.296875 C 5.332031 -0.128906 5 -0.0195312 4.6875 0.03125 C 4.382812 0.09375 4.046875 0.125 3.671875 0.125 Z M 3.5 -6.03125 C 2.882812 -6.03125 2.390625 -5.828125 2.015625 -5.421875 C 1.640625 -5.015625 1.421875 -4.425781 1.359375 -3.65625 L 5.328125 -3.65625 C 5.328125 -4.394531 5.164062 -4.972656 4.84375 -5.390625 C 4.519531 -5.816406 4.070312 -6.03125 3.5 -6.03125 Z M 3.5 -6.03125 "/></g></g></g><g fill="#545454" fill-opacity="1"><g transform="translate(214.569532, 272.68648)"><g><path d="M 5.0625 -1.671875 C 5.0625 -1.097656 4.84375 -0.65625 4.40625 -0.34375 C 3.96875 -0.03125 3.347656 0.125 2.546875 0.125 C 1.679688 0.125 1 -0.0078125 0.5 -0.28125 L 0.5 -0.90625 C 1.144531 -0.582031 1.828125 -0.421875 2.546875 -0.421875 C 3.179688 -0.421875 3.660156 -0.523438 3.984375 -0.734375 C 4.316406 -0.953125 4.484375 -1.234375 4.484375 -1.578125 C 4.484375 -1.898438 4.351562 -2.171875 4.09375 -2.390625 C 3.832031 -2.617188 3.398438 -2.835938 2.796875 -3.046875 C 2.148438 -3.285156 1.695312 -3.488281 1.4375 -3.65625 C 1.175781 -3.820312 0.976562 -4.007812 0.84375 -4.21875 C 0.71875 -4.425781 0.65625 -4.679688 0.65625 -4.984375 C 0.65625 -5.472656 0.859375 -5.851562 1.265625 -6.125 C 1.671875 -6.40625 2.234375 -6.546875 2.953125 -6.546875 C 3.648438 -6.546875 4.3125 -6.414062 4.9375 -6.15625 L 4.71875 -5.625 C 4.082031 -5.882812 3.492188 -6.015625 2.953125 -6.015625 C 2.429688 -6.015625 2.015625 -5.925781 1.703125 -5.75 C 1.398438 -5.582031 1.25 -5.34375 1.25 -5.03125 C 1.25 -4.695312 1.367188 -4.429688 1.609375 -4.234375 C 1.847656 -4.035156 2.3125 -3.8125 3 -3.5625 C 3.582031 -3.351562 4.003906 -3.164062 4.265625 -3 C 4.535156 -2.832031 4.734375 -2.640625 4.859375 -2.421875 C 4.992188 -2.210938 5.0625 -1.960938 5.0625 -1.671875 Z M 5.0625 -1.671875 "/></g></g></g><g fill="#545454" fill-opacity="1"><g transform="translate(220.206964, 272.68648)"><g/></g></g><g fill="#545454" fill-opacity="1"><g transform="translate(223.350689, 272.68648)"><g><path d="M 6 -2.234375 C 6 -1.503906 5.734375 -0.925781 5.203125 -0.5 C 4.671875 -0.0820312 3.96875 0.125 3.09375 0.125 C 2.03125 0.125 1.21875 0.00390625 0.65625 -0.234375 L 0.65625 -0.828125 C 1.28125 -0.566406 2.078125 -0.4375 3.046875 -0.4375 C 3.753906 -0.4375 4.3125 -0.597656 4.71875 -0.921875 C 5.132812 -1.242188 5.34375 -1.671875 5.34375 -2.203125 C 5.34375 -2.535156 5.273438 -2.804688 5.140625 -3.015625 C 5.003906 -3.234375 4.78125 -3.429688 4.46875 -3.609375 C 4.15625 -3.785156 3.695312 -3.976562 3.09375 -4.1875 C 2.21875 -4.488281 1.609375 -4.8125 1.265625 -5.15625 C 0.929688 -5.507812 0.765625 -5.984375 0.765625 -6.578125 C 0.765625 -7.222656 1.015625 -7.75 1.515625 -8.15625 C 2.023438 -8.5625 2.679688 -8.765625 3.484375 -8.765625 C 4.285156 -8.765625 5.046875 -8.613281 5.765625 -8.3125 L 5.546875 -7.78125 C 4.828125 -8.082031 4.140625 -8.234375 3.484375 -8.234375 C 2.847656 -8.234375 2.335938 -8.082031 1.953125 -7.78125 C 1.578125 -7.488281 1.390625 -7.09375 1.390625 -6.59375 C 1.390625 -6.269531 1.445312 -6.003906 1.5625 -5.796875 C 1.6875 -5.597656 1.878906 -5.414062 2.140625 -5.25 C 2.398438 -5.082031 2.851562 -4.882812 3.5 -4.65625 C 4.175781 -4.425781 4.679688 -4.203125 5.015625 -3.984375 C 5.359375 -3.765625 5.609375 -3.515625 5.765625 -3.234375 C 5.921875 -2.960938 6 -2.628906 6 -2.234375 Z M 6 -2.234375 "/></g></g></g><g fill="#545454" fill-opacity="1"><g transform="translate(229.945421, 272.68648)"><g><path d="M 5.5625 0 L 5.5625 -4.171875 C 5.5625 -4.816406 5.421875 -5.285156 5.140625 -5.578125 C 4.867188 -5.867188 4.453125 -6.015625 3.890625 -6.015625 C 3.117188 -6.015625 2.550781 -5.820312 2.1875 -5.4375 C 1.832031 -5.050781 1.65625 -4.421875 1.65625 -3.546875 L 1.65625 0 L 1.078125 0 L 1.078125 -9.203125 L 1.65625 -9.203125 L 1.65625 -6.28125 L 1.625 -5.453125 L 1.671875 -5.453125 C 1.910156 -5.835938 2.210938 -6.113281 2.578125 -6.28125 C 2.953125 -6.457031 3.410156 -6.546875 3.953125 -6.546875 C 5.410156 -6.546875 6.140625 -5.765625 6.140625 -4.203125 L 6.140625 0 Z M 5.5625 0 "/></g></g></g><g fill="#545454" fill-opacity="1"><g transform="translate(237.083804, 272.68648)"><g><path d="M 6.390625 -3.21875 C 6.390625 -2.175781 6.132812 -1.359375 5.625 -0.765625 C 5.113281 -0.171875 4.414062 0.125 3.53125 0.125 C 2.957031 0.125 2.457031 -0.0078125 2.03125 -0.28125 C 1.601562 -0.5625 1.273438 -0.953125 1.046875 -1.453125 C 0.816406 -1.960938 0.703125 -2.550781 0.703125 -3.21875 C 0.703125 -4.269531 0.957031 -5.085938 1.46875 -5.671875 C 1.976562 -6.253906 2.675781 -6.546875 3.5625 -6.546875 C 4.445312 -6.546875 5.140625 -6.25 5.640625 -5.65625 C 6.140625 -5.0625 6.390625 -4.25 6.390625 -3.21875 Z M 1.3125 -3.21875 C 1.3125 -2.332031 1.503906 -1.640625 1.890625 -1.140625 C 2.285156 -0.648438 2.835938 -0.40625 3.546875 -0.40625 C 4.253906 -0.40625 4.800781 -0.648438 5.1875 -1.140625 C 5.582031 -1.640625 5.78125 -2.332031 5.78125 -3.21875 C 5.78125 -4.101562 5.582031 -4.789062 5.1875 -5.28125 C 4.789062 -5.769531 4.238281 -6.015625 3.53125 -6.015625 C 2.820312 -6.015625 2.273438 -5.769531 1.890625 -5.28125 C 1.503906 -4.800781 1.3125 -4.113281 1.3125 -3.21875 Z M 1.3125 -3.21875 "/></g></g></g><g fill="#545454" fill-opacity="1"><g transform="translate(244.174913, 272.68648)"><g><path d="M 6.21875 0 L 4.8125 -4.296875 C 4.71875 -4.585938 4.597656 -5.015625 4.453125 -5.578125 L 4.421875 -5.578125 L 4.296875 -5.140625 L 4.03125 -4.28125 L 2.609375 0 L 2.015625 0 L 0.1875 -6.421875 L 0.8125 -6.421875 L 1.84375 -2.703125 C 2.082031 -1.773438 2.238281 -1.097656 2.3125 -0.671875 L 2.34375 -0.671875 C 2.582031 -1.585938 2.753906 -2.195312 2.859375 -2.5 L 4.1875 -6.421875 L 4.71875 -6.421875 L 5.96875 -2.515625 C 6.25 -1.585938 6.425781 -0.976562 6.5 -0.6875 L 6.53125 -0.6875 C 6.5625 -0.9375 6.71875 -1.617188 7 -2.734375 L 7.984375 -6.421875 L 8.578125 -6.421875 L 6.828125 0 Z M 6.21875 0 "/></g></g></g><g fill="#545454" fill-opacity="1"><g transform="translate(252.926529, 272.68648)"><g><path d="M 5.0625 -1.671875 C 5.0625 -1.097656 4.84375 -0.65625 4.40625 -0.34375 C 3.96875 -0.03125 3.347656 0.125 2.546875 0.125 C 1.679688 0.125 1 -0.0078125 0.5 -0.28125 L 0.5 -0.90625 C 1.144531 -0.582031 1.828125 -0.421875 2.546875 -0.421875 C 3.179688 -0.421875 3.660156 -0.523438 3.984375 -0.734375 C 4.316406 -0.953125 4.484375 -1.234375 4.484375 -1.578125 C 4.484375 -1.898438 4.351562 -2.171875 4.09375 -2.390625 C 3.832031 -2.617188 3.398438 -2.835938 2.796875 -3.046875 C 2.148438 -3.285156 1.695312 -3.488281 1.4375 -3.65625 C 1.175781 -3.820312 0.976562 -4.007812 0.84375 -4.21875 C 0.71875 -4.425781 0.65625 -4.679688 0.65625 -4.984375 C 0.65625 -5.472656 0.859375 -5.851562 1.265625 -6.125 C 1.671875 -6.40625 2.234375 -6.546875 2.953125 -6.546875 C 3.648438 -6.546875 4.3125 -6.414062 4.9375 -6.15625 L 4.71875 -5.625 C 4.082031 -5.882812 3.492188 -6.015625 2.953125 -6.015625 C 2.429688 -6.015625 2.015625 -5.925781 1.703125 -5.75 C 1.398438 -5.582031 1.25 -5.34375 1.25 -5.03125 C 1.25 -4.695312 1.367188 -4.429688 1.609375 -4.234375 C 1.847656 -4.035156 2.3125 -3.8125 3 -3.5625 C 3.582031 -3.351562 4.003906 -3.164062 4.265625 -3 C 4.535156 -2.832031 4.734375 -2.640625 4.859375 -2.421875 C 4.992188 -2.210938 5.0625 -1.960938 5.0625 -1.671875 Z M 5.0625 -1.671875 "/></g></g></g></svg>